# xmcd
#
# Track frame offsets: 
#        150
#        14849
#        32940
#        50082
#        66228
#        78661
#        90805
#        103428
#        123744
#        142625
#        159842
#        175008
#
# Disc length: 2967 seconds
#
# Revision: 0
# Processed by: cddbd v1.5.2PL0 Copyright (c) Steve Scherf et al.
# Submitted via: ExactAudioCopy v0.95b4
#
DISCID=9f0b950c
DTITLE=Ingram, Jack - This Is It
DYEAR=2007
DGENRE=Country
TTITLE0=Measure Of A Man
TTITLE1=Hold On
TTITLE2=Lips Of An Angel
TTITLE3=Wherever You Are
TTITLE4=Love You
TTITLE5=Easy As 1,  2, 3 (Part II)
TTITLE6=Ava Adele
TTITLE7=Make A Wish (Coming Home Again)
TTITLE8=Great Divide
TTITLE9=Don't Want To Hurt
TTITLE10=Maybe She'll Get Lonely
TTITLE11=All I Can Do
EXTD=
EXTT0=
EXTT1=
EXTT2=
EXTT3=
EXTT4=
EXTT5=
EXTT6=
EXTT7=
EXTT8=
EXTT9=
EXTT10=
EXTT11=
PLAYORDER=
